<?xml version="1.0" encoding="UTF-8" standalone="no"?>
<svg
   xmlns:dc="http://purl.org/dc/elements/1.1/"
   xmlns:cc="http://creativecommons.org/ns#"
   xmlns:rdf="http://www.w3.org/1999/02/22-rdf-syntax-ns#"
   xmlns:svg="http://www.w3.org/2000/svg"
   xmlns="http://www.w3.org/2000/svg"
   xmlns:sodipodi="http://sodipodi.sourceforge.net/DTD/sodipodi-0.dtd"
   xmlns:inkscape="http://www.inkscape.org/namespaces/inkscape"
   width="1920px"
   height="1080px"
   viewBox="0 0 1920 1080"
   version="1.1"
   id="SVGRoot"
   sodipodi:docname="portfolioIdeas.svg"
   inkscape:version="1.0.1 (3bc2e813f5, 2020-09-07)">
  <defs
     id="defs150" />
  <sodipodi:namedview
     id="base"
     pagecolor="#ffffff"
     bordercolor="#666666"
     borderopacity="1.0"
     inkscape:pageopacity="0.0"
     inkscape:pageshadow="2"
     inkscape:zoom="0.66"
     inkscape:cx="940.09773"
     inkscape:cy="536.87011"
     inkscape:document-units="px"
     inkscape:current-layer="layer2"
     inkscape:document-rotation="0"
     showgrid="false"
     inkscape:window-width="1920"
     inkscape:window-height="1017"
     inkscape:window-x="-8"
     inkscape:window-y="-8"
     inkscape:window-maximized="1"
     showguides="true"
     inkscape:guide-bbox="true" />
  <metadata
     id="metadata153">
    <rdf:RDF>
      <cc:Work
         rdf:about="">
        <dc:format>image/svg+xml</dc:format>
        <dc:type
           rdf:resource="http://purl.org/dc/dcmitype/StillImage" />
        <dc:title />
      </cc:Work>
    </rdf:RDF>
  </metadata>
  <g
     inkscape:label="Sky"
     inkscape:groupmode="layer"
     id="layer1"
     style="display:inline" />
  <g
     inkscape:groupmode="layer"
     id="layer2"
     inkscape:label="Ground"
     style="opacity:0.999225">
    <path
       style="fill:none;stroke:#000000"
       d="m 3.030303,643.93939 c -7.8249699,97.45075 30.897871,-3.49045 43.939394,3.03031 5.396123,2.69806 13.372768,3.28061 19.69697,4.54545 2.383356,0.47667 5.218795,-0.58924 7.575757,0 12.8154,3.20385 25.614094,4.09206 39.393936,6.06061 6.56072,0.93724 13.04248,3.59481 19.69697,4.54545 2.47475,0.35354 8.48485,-0.47138 10.60606,0 2.65502,0.59001 4.93719,2.37066 7.57576,3.03031 8.27898,2.06974 17.19862,2.64346 25.75758,4.54545 11.33768,2.51949 22.19318,5.90801 33.33333,9.09091 3.69874,3.02308 8.17094,0.52758 12.12121,1.51515 2.19122,0.5478 3.89721,2.38128 6.06061,3.0303 9.99181,2.99755 20.35913,4.59259 30.30303,7.57576 2.1634,0.64902 3.94576,2.23724 6.06061,3.0303 8.96365,3.36137 18.33379,5.36636 27.27272,9.09091 4.16983,1.73743 7.83572,4.63211 12.12121,6.06061 2.44311,0.81437 5.15555,0.63507 7.57576,1.51515 14.40113,5.23677 28.0178,12.7794 42.42424,18.18182 22.75393,8.53272 45.67945,16.1137 68.18182,25.75757 3.74262,1.60398 6.86345,4.45663 10.60606,6.06061 9.69161,4.15354 20.38174,6.99832 30.30303,10.60606 15.24,5.54182 30.1136,12.60329 45.45455,18.18182 16.64412,6.05241 32.59694,11.75302 48.48485,19.69697 4.06956,2.03478 9.27863,4.81554 13.63636,6.06061 2.07375,0.59249 9.5161,1.46723 12.12121,3.0303 9.96577,5.97946 20.20081,12.12048 30.30303,18.18182 5.13883,3.08329 11.4733,4.45973 16.66667,7.57575 20.21938,12.13163 41.79988,20.74386 60.60606,34.84849 13.48964,10.11723 30.54573,15.71232 43.93939,25.75757 3.01461,2.26096 7.241,2.86293 10.60607,4.54546 7.37328,3.68664 13.99071,8.18226 21.21212,12.12121 4.3668,2.38189 9.37104,3.50142 13.63636,6.06061 28.46253,17.07751 52.96603,39.35109 80.30303,57.57575 7.16152,4.77435 12.12141,12.12133 19.69697,16.66672 19.34023,11.6041 38.1668,24.4584 56.06061,37.8787 7.0294,-1.2965 1.74267,3.2579 3.0303,4.5455 0.35712,0.3571 1.06342,-0.2259 1.51515,0 5.20806,2.604 9.02025,10.1743 13.63636,13.6364 4.67521,3.5064 10.2802,5.8433 15.15152,9.0909 1.78287,1.1885 2.83126,3.2598 4.54545,4.5454 6.42497,4.8187 14.25572,9.4625 21.21213,13.6364 4.76265,2.8576 9.97955,5.4341 13.63635,9.0909 3.5178,3.5178 7.7872,8.439 12.1212,10.6061 0.4518,0.2258 1.2893,-0.4518 1.5152,0 0.9034,1.8069 0,4.0404 0,6.0606"
       id="path841" />
    <path
       style="fill:none;stroke:#000000"
       d="m 743.93939,901.51515 c 49.97576,-22.37712 101.66864,-40.30005 153.03031,-59.09091 16.32263,-5.97169 32.98131,-12.73928 50,-16.66666 3.47979,-0.80303 7.0707,-1.01011 10.60606,-1.51516 5.0505,-1.0101 10.1379,-1.85063 15.15151,-3.0303 44.78103,-10.5367 -24.65523,5.16518 21.21212,-7.57576 8.49851,-2.3607 17.16311,-4.07727 25.75761,-6.0606 10.2791,-2.37211 21.3935,-3.05622 31.8182,-4.54546 13.7232,-1.96046 27.2031,-5.61776 40.909,-7.57575 11.9672,-1.7096 24.4826,-2.4488 36.3637,-4.54546 3.6209,-0.63898 6.9922,-2.35271 10.606,-3.0303 16.3888,-3.07289 33.4738,-3.69972 50,-6.06061 6.5657,-1.0101 13.1314,-2.0202 19.697,-3.0303 4.5455,-1.0101 9.037,-2.30409 13.6364,-3.0303 9.5309,-1.50488 19.2456,-1.59897 28.7879,-3.03031 19.6547,-2.94821 39.3609,-6.81437 59.0909,-9.09091 7.5425,-0.87029 15.1887,-0.61053 22.7272,-1.51515 21.2022,-2.54425 42.4548,-7.58012 63.6364,-10.60606 16.7567,-2.39381 33.3144,-6.30998 50,-9.09091 9.0224,-1.50373 18.2611,-1.46307 27.2727,-3.0303 25.4799,-4.43128 50.1969,-12.83257 75.7576,-16.66667 16.0527,-2.4079 32.4897,-3.23793 48.4848,-6.0606 16.4461,-2.90225 33.2474,-8.20919 50,-9.09091 8.574,-0.45127 17.2471,-1.13474 25.7576,0 34.3044,4.57392 -8.1252,2.08458 28.7879,4.54545 13.5114,0.90076 27.4586,-1.4945 40.9091,0 9.5964,1.06627 19.1424,2.15345 28.7879,3.03031 19.0916,1.7356 38.4784,1.12057 57.5757,3.0303 25.196,2.5196 50.742,8.4152 75.7576,12.12121 14.4067,2.13432 44.5134,-2.45632 54.5455,7.57576"
       id="path843" />
    <path
       style="fill:none;stroke:#000000"
       d="m 3.030303,643.93939 c 46.098228,-3.88245 94.632991,-21.5203 140.909087,-24.24242 17.5968,-1.03511 35.45776,1.35173 53.03031,0 11.11968,-0.85536 22.18656,-2.33363 33.33333,-3.0303 14.59068,-0.91192 29.34506,0.85849 43.93939,0 18.71382,-1.10082 37.36349,-3.29898 56.06061,-4.54546 12.28499,-0.819 24.17566,0.93477 36.36364,1.51515 18.06566,0.86027 36.44913,0 54.54545,0 18.61183,0 37.46017,0.74402 56.06061,0 26.91219,-1.07648 53.47972,-6.40952 80.30303,-7.57575 21.80667,-0.94812 43.29904,2.55574 65.15151,1.51515 19.19954,-0.91427 38.37789,-3.58556 57.57576,-4.54546 11.65226,-0.58261 52.82137,1.50966 53.0303,1.51515 36.91314,0.9714 73.76458,-3.18976 110.60606,-1.51515 18.10617,0.82301 16.14106,2.40672 34.84849,3.03031 30.75556,1.02518 61.68394,-1.39729 92.42424,0 19.27233,0.87601 38.23368,3.95933 57.57578,4.54545 12.6204,0.38244 25.27,-0.66362 37.8788,0 31.3661,1.65085 62.5663,5.48422 93.9394,7.57576 20.13,1.342 40.4471,1.84448 60.606,3.0303 35.2138,2.0714 70.8332,6.38111 106.0606,9.09091 21.5852,1.6604 42.2137,7.84184 63.6364,10.60606 26.9622,3.47899 55.0414,4.3656 81.8182,9.09091 3.1456,0.55511 5.9785,2.31205 9.0909,3.0303 26.0791,6.01825 53.9309,6.69909 80.303,10.60606 18.9485,2.80719 37.2806,8.59996 56.0606,12.12122 21.553,4.04118 43.4808,5.84029 65.1515,9.0909 42.915,6.43725 -5.1489,-0.30255 28.7879,6.06061 8.0042,1.50079 16.2734,1.35262 24.2424,3.0303 28.2022,5.9373 55.6366,14.97217 83.3334,22.72728 9.5312,2.66875 27.5184,7.00244 37.8788,10.60606 23.9946,8.34597 47.3285,18.58779 71.2121,27.27272"
       id="path845" />
    <path
       style="fill:none;stroke:#000000"
       d="m 1054.5455,557.57576 c -4.3308,-51.96943 -3.5552,-19.34018 -1.5152,-56.06061 0.1401,-2.52136 -0.6125,-5.1259 0,-7.57576 0.4417,-1.76661 2.313,-2.8717 3.0303,-4.54545 3.3672,-7.8568 5.424,-16.90857 9.0909,-24.24242 2.3103,-4.62055 1.2012,2.77112 3.0303,-4.54546 2.8076,-11.23047 6.364,-22.42549 9.0909,-33.33333 0.8022,-3.20856 3.7433,-5.88236 4.5455,-9.09091 0.7423,-2.96944 0.7728,-4.60632 1.5151,-7.57576 0.567,-2.26781 3.7308,-5.94638 4.5455,-7.57576 12.8263,-25.65263 34.3554,-50.76657 57.5757,-68.18182 14.7325,-11.04931 31.3484,-20.84654 48.4849,-27.27272 11.8996,-4.46235 21.664,-13.18067 33.3333,-18.18182 5.3388,-2.28803 11.2552,-2.57764 16.6667,-4.54546 7.7314,-2.8114 15.0934,-6.22822 22.7273,-9.0909 8.867,-3.32515 3.1569,-0.23455 12.1212,-1.51516 9.1643,-1.30918 18.1349,-6.05278 27.2727,-7.57575 4.9105,-0.81842 10.2232,0.70405 15.1515,0 5.1542,-0.73631 9.9014,-3.79544 15.1515,-4.54546 2.9999,-0.42855 6.0757,0.30153 9.0909,0 31.8412,-3.18412 -3.234,-1.04023 16.6667,-3.0303 18.0855,-1.80855 39.3999,-3.5347 57.5758,-1.51515 7.6798,0.85331 15.0968,3.78241 22.7272,4.54545 8.7611,0.8761 17.1022,0.55733 25.7576,3.03031 10.6526,3.0436 19.2963,10.40571 28.7879,15.15151 5.0505,2.52525 9.9087,5.47865 15.1515,7.57576 5.5429,2.21715 5.073,0.35172 9.0909,3.0303 4.3334,2.88891 14.8736,12.25565 18.1818,16.66667 3.1166,4.1554 4.245,9.47282 7.5758,13.63636 4.4101,5.51264 9.711,10.77867 13.6364,16.66667 6.1324,9.19859 -4.3617,-4.74414 3.0303,7.57576 0.7349,1.22492 2.3914,1.75261 3.0303,3.0303 3.7774,7.55483 4.3406,16.6937 7.5757,24.24242 0.5627,1.313 2.2954,1.80538 3.0303,3.03031 0.8217,1.36951 0.7228,3.15877 1.5152,4.54545 3.1284,5.47471 9.016,10.30668 10.606,16.66667 0.735,2.93982 -0.3758,6.084 0,9.09091 0.5166,4.13259 2.3457,8.01312 3.0303,12.12121 1.4678,8.80674 -0.9846,18.41129 0,27.27273 0.4922,4.42944 2.3902,9.15541 3.0303,13.63636 0.7055,4.93852 -0.8196,10.23356 0,15.15151 3.6608,21.96453 2.1462,46.21422 -1.5151,68.18182 -2.8068,16.84061 -3.2192,34.59528 -13.6364,48.48485 -1.4499,1.93318 -1.6069,6.15236 -3.0303,7.57576 -0.3571,0.35712 -1.158,-0.35713 -1.5151,0 -2.3846,2.38456 -1.9688,6.51418 -4.5455,9.09091 -0.3571,0.35712 -1.158,-0.35713 -1.5151,0 -0.9489,0.94883 0.061,2.96903 -1.5152,4.54545"
       id="path847" />
    <path
       style="fill:none;stroke:#000000"
       d="M 4.5454545,293.93939 C 23.606616,281.48 51.201688,274.55589 68.181818,257.57576 c 1.84543,-1.84543 0.709731,-3.38517 3.030303,-4.54546 0.903462,-0.45173 2.072037,0.31943 3.030303,0 3.562794,-1.18759 7.043267,-3.35785 10.606061,-4.54545 1.363636,-0.45455 3.181818,0.45454 4.545454,0 2.251823,-0.75061 9.438509,-3.30362 12.121211,-1.51515 2.47644,1.65095 4.75981,6.63711 7.57576,7.57575 7.01408,2.33803 15.28736,-0.34482 22.72727,1.51516 4.49034,1.12258 8.84278,2.23137 13.63637,3.0303 5.79308,0.96551 12.49664,-1.42129 18.18181,0 4.7257,1.18142 21.42823,3.2464 24.24243,6.06061 4.313,4.31299 3.45072,11.19302 4.54545,16.66666 2.19082,10.95408 10.95105,17.01166 18.18182,24.24243 8.75421,8.7542 -3.59403,0.40329 7.57576,9.09091 8.13079,6.32394 18.06041,12.0605 27.27273,16.66666 10.25245,5.12623 23.47955,8.32805 31.81818,16.66667 3.79628,3.79629 7.94241,7.45982 10.60606,12.12121 1.82421,3.19238 1.38598,7.31741 3.0303,10.60606 5.03091,10.06181 14.55539,18.70698 24.24243,24.24243 12.41048,7.0917 26.49715,10.7143 39.39393,16.66666 14.39514,6.64391 29.69734,12.57594 43.9394,19.69697 2.25865,1.12933 3.85314,3.31909 6.0606,4.54546 7.87404,4.37446 6.63697,1.39433 13.63637,6.0606 2.69077,1.79385 4.88499,4.26676 7.57576,6.06061 11.79758,7.86505 26.26875,11.40409 37.87878,19.69697 7.62013,5.44294 13.32584,14.9652 21.21212,19.69697 10.54873,6.32923 16.30494,-2.5553 27.27273,10.60606 2.50169,3.00203 3.70797,7.46921 6.06061,10.60606 3.59698,4.79597 9.03307,8.66874 13.63636,12.12121 2.2856,1.7142 3.50523,4.78292 6.06061,6.06061 7.40204,3.70102 16.49763,5.64878 24.24242,9.09091 19.00559,8.44693 38.36948,16.2398 57.57576,24.24242 9.46773,3.94489 18.0012,9.51569 27.27273,13.63636 14.56633,6.47393 14.98041,3.06998 28.78788,15.15152 0.28181,0.24659 15.15151,13.58662 15.15151,9.09091"
       id="path849" />
    <path
       style="fill:none;stroke:#000000"
       d="m 339.39394,398.48485 c 13.63636,-4.54546 27.81283,-7.71187 40.90909,-13.63637 8.29557,-3.75275 14.9582,-10.40375 22.72727,-15.15151 4.55862,-2.78582 6.08533,-1.52339 10.60606,-3.0303 6.86014,-2.28672 13.37575,-5.57912 19.69697,-9.09091 5.26288,-2.92382 8.84428,-8.52715 13.63637,-12.12121 6.97118,-5.22839 14.22078,-9.90801 21.21212,-15.15152 1.27769,-0.95827 3.41613,-0.38582 4.54545,-1.51515 3.13491,-3.1349 -4.79054,0.12254 1.51515,-3.0303 11.85924,-5.92962 24.67511,-10.99563 37.87879,-13.63637 5.18712,-1.03742 13.92273,0.38719 18.18182,0 0.31325,-0.0285 40.76565,-7.64748 43.93939,-6.0606 3.94998,1.97499 3.65779,8.91745 6.06061,12.12121 2.5713,3.42839 6.30195,5.83712 9.09091,9.09091 5.95944,6.95268 9.11074,17.33018 16.66667,22.72727 15.95559,11.39685 39.9093,10.01238 53.0303,25.75758 10.03928,12.04713 -0.86462,26.43869 15.15151,37.87878 10.74438,7.67456 24.39284,11.85524 34.84849,19.69697 3.76274,2.82206 6.67175,8.97377 10.60606,12.12122 5.12936,4.10348 11.15664,6.1289 15.15151,12.12121 4.92924,7.39386 -2.60685,1.93859 4.54546,9.09091 7.82795,7.82795 21.67745,9.55623 28.78788,16.66666 5.02554,5.02554 7.45192,12.54371 13.63636,16.66667 7.21532,4.81021 18.30912,6.18791 24.24243,12.12121 0.35712,0.35713 -0.35713,1.15803 0,1.51515 3.41133,3.41134 8.11196,-2.91388 9.09091,-4.54545 2.86303,-4.77172 5.09805,-11.15866 9.0909,-15.15152 9.79931,-9.7993 -7.73274,15.387 7.57576,-7.57575 2.12715,-3.19073 4.45056,-7.48086 6.06061,-9.09091 2.6306,-2.63061 10.29656,-4.39071 13.63636,-6.06061 2.56357,-1.28178 31.11669,-4.43328 31.81818,-3.0303 2.57766,5.15531 -2.93986,6.15104 3.03031,12.12121 4.6943,4.6943 12.90304,7.89819 18.18181,12.12121 5.54578,4.43662 7.15726,10.03686 13.63637,13.63637 2.37751,1.32084 5.02915,2.07532 7.57576,3.0303 8.37576,3.14091 9.81306,6.9633 15.15151,13.63636 2.67567,3.34458 5.94455,5.05868 9.09091,7.57576 4.43459,3.54767 7.68662,8.57354 12.12121,12.12121 13.35685,10.68548 22.92688,6.94672 39.39399,10.60606 1.6286,0.36192 5.3378,14.85989 6.0606,16.66667 2.492,6.23018 11.4506,14.26977 16.6666,18.18182 5.2023,3.90174 27.2728,9.86189 27.2728,13.63636"
       id="path851" />
    <path
       style="fill:none;stroke:#000000"
       d="m 1712.1212,677.27273 c 14.1414,-0.50505 28.5713,1.37089 42.4243,-1.51515 18.5189,-3.85811 32.8914,-15.1463 48.4848,-24.24243 10.8494,-6.3288 23.1721,-11.99613 34.8485,-16.66667 4.9069,-1.96276 10.1688,-2.55237 15.1515,-4.54545 10.0655,-4.02619 17.0878,-12.59268 27.2727,-16.66667 4.4304,-1.77215 9.0599,-3.63015 13.6364,-4.54545 1.4857,-0.29715 3.108,0.47913 4.5454,0 0.4792,-0.15971 -0.3571,-1.15803 0,-1.51515 0.8875,-0.88745 14.5258,2.58561 19.697,0"
       id="path853" />
    <path
       style="fill:none;stroke:#000000"
       d="m 643.93939,613.63636 c 2.06849,51.71211 -4.24805,23.77522 6.06061,46.9697 0.47336,1.06507 1.79008,6.33554 3.0303,7.57576 4.36977,4.36977 11.64503,6.14721 13.63637,12.12121 0.47913,1.4374 -0.6776,3.19026 0,4.54545 3.14343,6.28688 -1.35793,8.77647 -4.54546,15.15152 -2.22423,4.44846 -1.92505,7.70019 -3.0303,12.12121 -0.63934,2.55736 -2.69513,4.03584 -1.51515,7.57576 0.87555,2.62667 4.45437,5.1664 6.0606,7.57576 3.23371,4.85056 5.70722,9.96223 10.60606,13.63636 18.66992,14.00244 60.29759,22.72727 83.33334,22.72727 12.02292,0 23.48766,-0.19009 34.84848,-3.0303 8.96631,-2.24158 21.70775,0.73376 30.30303,1.51515 15.02733,1.36612 30.42723,-1.36612 45.45455,0 11.73033,1.0664 23.13701,3.24418 34.84848,4.54546 20.83303,2.31478 43.1373,-0.75263 63.63637,-3.03031 17.84648,-1.98294 35.45433,-6.70028 53.03033,-10.60606 7.6784,-1.70631 14.9873,-1.48232 22.7272,-3.0303 10.6171,-2.12342 21.3681,-4.72573 31.8182,-7.57576 20.8338,-5.68193 58.8723,-19.43767 80.3031,-15.15151 3.5101,0.70202 7.0959,2.32828 10.606,3.0303 15.7843,3.15685 32.9041,-2.30115 46.9697,-7.57576 21.4314,-8.03677 44.1593,-13.73061 65.1515,-22.72727 1.6738,-0.71732 2.8717,-2.31298 4.5455,-3.0303 7.4989,-3.21382 17.5354,-4.61956 24.2424,-9.09091 4.6376,-3.09171 6.847,-4.74204 12.1212,-6.06061 1.2057,-0.30141 24.0544,-14.96348 25.7576,-16.66666 0.7985,-0.79856 0.7166,-2.23175 1.5151,-3.03031 0.2792,-0.27918 4.2663,-1.23596 4.5455,-1.51515 3.2968,-3.29683 0.9747,-9.57828 9.0909,-13.63636 2.1481,-1.07406 10.6815,-0.0754 12.1212,-1.51515 0.3571,-0.35713 -0.3571,-1.15803 0,-1.51516 0.6169,-0.61685 5.0907,-2.54535 6.0606,-3.0303 0.9035,-0.45173 2.3161,0.71425 3.0303,0 1.5152,-1.51515 1.5152,-4.54545 3.0303,-6.06061 1.2877,-1.28763 5.8331,-1.74267 4.5455,-3.0303 -0.7143,-0.71425 -2.0202,0 -3.0303,0"
       id="path855" />
    <path
       style="fill:none;stroke:#000000"
       d="m 1568.1818,660.60606 c 27.7314,3.52744 46.9793,-38.84734 68.1818,-48.48485 2.7968,-1.27124 6.1547,-0.61169 9.0909,-1.51515 18.0888,-5.56576 3.9866,-2.18451 18.1819,-12.12121 6.8184,-4.77288 7.8899,-1.75254 15.1515,-4.54546 4.2162,-1.62162 8.2192,-3.78446 12.1212,-6.0606 9.2313,-5.38493 12.4443,-15.47465 19.697,-22.72727 5.0899,-5.08995 16.335,-9.98364 22.7272,-13.63637 7.9354,-4.53452 14.2411,-12.37263 21.2122,-18.18182 6.6911,-5.57592 14.582,-9.35018 21.2121,-15.15151 3.6306,-3.17677 9.6156,-7.94529 12.1212,-12.12121 0.8217,-1.36951 0.5569,-3.26777 1.5151,-4.54546 1.84,-0.92 3.3886,-1.29502 4.5455,-3.0303 6.4444,-9.66667 16.7006,-14.41092 27.2727,-19.69697 8.2633,-4.13164 18.432,11.45743 24.2424,13.63636 2.2811,0.85539 9.9163,-0.68981 12.1213,1.51515 3.9302,3.93022 0.5586,2.79118 7.5757,4.54546 7.9894,1.99734 31.0897,-11.57481 37.8788,-16.66667 3.1462,-2.35965 4.4994,-6.01451 6.0606,-7.57576 4.8842,-4.88418 13.2651,-5.68931 18.1818,-10.60606"
       id="path857" />
    <path
       style="fill:none;stroke:#000000"
       d="m 113.63636,140.90909 c 12.12122,-6.56566 22.58692,-19.21358 36.36364,-19.69697 5.31807,-0.1866 73.34418,25.4302 95.45455,27.27273 16.40787,1.36732 32.229,-2.99296 48.48484,-1.51515 10.27576,0.93416 21.99387,3.25366 31.81819,6.0606 2.61513,0.74718 5.0505,2.02021 7.57575,3.03031 4.04041,2.0202 7.79442,4.76256 12.12122,6.0606 19.3271,5.79813 38.09353,2.77435 57.57575,4.54546 15.29097,1.39008 23.47221,15.90728 39.39394,18.18181 11.37153,1.62451 23.39586,-1.04114 34.84849,0 11.80108,1.07283 22.10998,7.23906 33.33333,10.60607 10.94258,3.28277 1.02886,0.11431 13.63636,1.51515 9.01058,1.00117 18.63487,4.69647 27.27273,7.57575 13.7628,4.58761 24.09497,15.10237 37.87879,19.69697 7.82809,2.60937 15.01374,6.19834 22.72727,9.09091 7.28946,2.73355 15.38984,2.91492 22.72727,4.54546 7.27304,1.61623 12.91738,5.03341 19.69697,7.57576 6.94339,2.60376 14.34031,2.93705 21.21213,6.0606 13.13142,5.96883 25.79224,14.59634 39.39394,19.69697 9.46056,3.54771 19.09288,6.18241 28.78787,9.09091 12.36431,3.70929 22.18848,13.50166 34.84849,16.66667 6.76668,1.69167 15.6185,0 22.72727,0 3.47843,0 11.94308,1.60422 15.15152,0 1.54591,-0.77296 -2.95782,-15.11528 -6.06061,-16.66667 -4.18109,-2.09055 -12.89498,-2.10538 -18.18182,-4.54545 -8.30721,-3.8341 -13.58958,-7.9487 -22.72727,-9.09091 -11.58298,-1.44788 -21.73083,-4.84576 -33.33333,-7.57576 -8.37969,-1.97169 -17.48475,-2.18179 -25.75758,-4.54546 -11.79756,-3.37073 -25.18589,-8.4774 -36.36364,-13.63636 -11.47364,-5.29553 -23.04207,-12.12574 -34.84848,-16.66667 -12.17598,-4.68307 -26.79673,-7.64201 -39.39394,-10.60606 -11.58583,-2.72607 -22.06869,-2.74805 -33.33333,-7.57575 -14.59456,-6.25482 -25.82391,-14.97297 -39.39394,-22.72728 -22.58902,-12.908 -46.82306,-28.73288 -71.21212,-37.87878 -11.42123,-4.28296 -23.09055,-6.37754 -34.84849,-9.09091 -14.26387,-3.29167 -27.1126,-10.55269 -40.90909,-15.15152 -4.88622,-1.62874 -10.21821,-1.55031 -15.15151,-3.0303 -5.66216,-1.69865 -11.14923,-3.93852 -16.66667,-6.06061 C 331.00877,105.39964 316.15374,95.337938 300,86.363636 c -2.37752,-1.320842 -5.19824,-1.709461 -7.57576,-3.030303 -2.20747,-1.226371 -3.85314,-3.319083 -6.0606,-4.545454 -2.37752,-1.320842 -5.26939,-1.588823 -7.57576,-3.030303 -6.87299,-4.295615 -9.95591,-9.388428 -19.69697,-10.606061 -11.49489,-1.436861 -23.41609,-0.0861 -34.84849,-1.515151 C 214.01828,62.358346 204.1838,60.229177 193.93939,59.090909 178.42494,57.367081 162.38919,58.26339 146.9697,56.060606 135.1825,54.376721 123.63696,49.848635 112.12121,46.969697 104.52964,45.071804 97.005489,44.890838 89.393939,43.939394 82.050588,43.021475 69.664407,35.622342 62.121212,39.393939 c -18.825604,9.412803 16.090997,12.173186 21.212121,13.636364 2.646711,0.756203 10.978017,4.399139 13.636364,6.060606 2.885812,1.803633 10.985133,6.439677 13.636363,9.090909 4.89311,4.893108 4.6079,10.855823 6.06061,16.666667 1.97206,7.888256 16.12675,20.807185 22.72727,25.757575 1.82674,1.37006 8.36031,0 10.60606,0"
       id="path859" />
    <path
       style="fill:none;stroke:#000000"
       d="m 334.84848,43.939394 c 37.71123,7.681902 74.60234,18.800723 112.12122,27.272727 16.93015,3.822937 34.6433,3.503242 51.51515,7.575758 20.05754,4.841476 34.6065,19.257686 54.54545,24.242421 17.1313,4.28283 34.73694,1.90025 51.51515,9.09091 18.62294,7.98126 35.32983,19.25685 53.03031,28.78788 10.03898,5.40561 19.42635,10.1136 28.78788,16.66667 15.92413,11.14689 30.5243,24.46192 46.96969,34.84848 13.64051,8.61506 24.90292,10.32118 39.39394,15.15152 7.39293,2.46431 14.03826,7.53155 21.21212,10.60606 8.54693,3.66297 0.35451,-0.81403 10.60606,3.0303 14.80343,5.55129 29.88779,10.61557 43.9394,18.18182 5.18584,2.79238 10.50235,5.47489 15.15151,9.09091 6.17107,4.79972 11.13915,11.31005 18.18182,15.15151 19.41364,10.58926 2.08097,-0.64504 19.69697,7.57576 15.43738,7.20411 25.5,12.76107 42.42424,16.66667 1.57628,0.36375 44.10884,3.36919 42.42425,0 -7.51858,-15.03715 -32.33735,-11.87222 -45.45455,-15.15152 -5.73496,-1.43374 -11.4355,-3.30736 -16.66667,-6.0606 -18.26942,-9.61549 -29.08934,-28.19711 -48.48484,-36.36364 -19.20809,-8.08761 -40.19272,-12.48988 -59.09091,-21.21212 -8.64735,-3.99108 -24.55287,-13.67749 -34.84849,-18.18182 -14.98469,-6.5558 -31.84442,-10.34001 -45.45454,-19.69697 -15.83032,-10.88334 -27.70745,-25.92139 -42.42425,-37.87879 -21.70965,-17.63909 -5.28725,-3.4012 -22.72727,-12.12121 C 660.00424,115.60818 651.13281,106.81581 640.90909,100 632.00095,94.061237 620.11138,92.631447 610.60606,87.878788 589.13981,77.145662 603.70477,82.912993 589.39394,75.757576 c -3.44028,-1.72014 -7.30784,-2.566524 -10.60606,-4.545455 -1.83739,-1.102434 -2.80183,-3.300007 -4.54546,-4.545454 -3.67588,-2.625633 -8.42048,-3.4701 -12.12121,-6.060606 -3.23152,-2.262063 -5.76302,-5.458015 -9.09091,-7.575758 -6.32558,-4.025368 -14.5492,-4.614459 -21.21212,-7.575758 -7.96701,-3.540895 -15.17233,-9.319253 -22.72727,-13.636363 -11.05075,-6.314714 -23.14235,-8.953911 -34.84849,-13.636364 -5.96719,-2.386877 -8.68984,-4.545454 -15.15151,-4.545454 -11.72911,0 -17.90037,-6.4977949 -27.27273,-12.1212125 -6.971,-4.1825989 -16.68408,-2.6558685 -24.24242,-4.5454545 -5.45661,-1.3641518 -15.47,-6.1088482 -21.21212,-1.5151515 -17.91921,14.3353668 16.0463,33.5162835 22.72727,42.4242425 1.35519,1.806923 2.0202,4.040404 3.0303,6.060606"
       id="path861" />
    <path
       style="fill:none;stroke:#000000"
       d="m 1663.6364,413.63636 c 34.9444,-19.24941 72.6987,-33.84791 107.5757,-53.0303 5.7699,-3.17346 10.9678,-7.30671 16.6667,-10.60606 16.6218,-9.62318 8.3453,-2.44274 25.7576,-13.63636 14.385,-9.24753 27.4113,-21.43527 40.9091,-31.81819 6.8872,-5.2979 15.0679,-9.00731 21.2121,-15.15151 10.1837,-10.18377 19.5423,-22.23864 28.7879,-33.33333 8.6894,-10.42734 18.8476,-19.77165 27.2727,-30.30303 2.9187,-3.64836 8.4707,-14.52121 10.606,-18.18182 1.4839,-2.54377 3.9679,-4.68802 4.5455,-7.57576 0.075,-0.37681 -4.605,-0.48189 -13.6364,3.0303 -19.8869,7.73382 -12.6216,6.31083 -30.303,15.15152 -1.8146,0.90729 -11.7737,3.80874 -15.1515,6.0606 -10.4431,6.96206 -2.5276,2.52762 -13.6364,13.63637 -1.2589,1.25889 -14.4684,11.9877 -16.6666,13.63636 -11.5233,8.64246 4.8209,-4.72909 -13.6364,7.57576 -1.7829,1.18858 -2.8313,3.2598 -4.5455,4.54545 -2.0261,1.5196 -17.5198,10.16473 -18.1818,10.60606 -5.6347,3.75648 -10.8524,10.31396 -16.6666,13.63637 -4.3188,2.46788 -9.2882,3.64493 -13.6364,6.0606 -6.5563,3.64237 -13.3382,8.4119 -19.697,12.12122 -11.1657,6.51334 -23.1163,8.15246 -33.3333,16.66666 -4.1244,3.437 -8.5297,6.6155 -12.1212,10.60606 -2.1127,2.34741 -3.1167,9.26361 -4.5455,12.12122 -4.9284,9.8569 -6.5802,10.03497 -10.606,19.69697 -2.0922,5.02113 -4.0404,10.10101 -6.0606,15.15151 -0.1876,0.46893 0.3571,1.87228 0,1.51515 -1.2877,-1.28763 -2.0202,-3.0303 -3.0303,-4.54545"
       id="path863" />
    <path
       style="fill:none;stroke:#000000"
       d="m 1645.4545,281.81818 c 96.2081,-48.10402 20.6815,-8.26246 124.2425,-69.69697 64.0932,-38.02138 -16.2522,13.36006 42.4242,-25.75757 22.7572,-15.17144 26.5472,-15.24801 45.4546,-33.33334 5.4256,-5.18978 9.8424,-11.35762 15.1515,-16.66666 8.8323,-8.83233 20.5878,-14.87092 28.7879,-24.24243 8.6377,-9.87165 13.6758,-19.36753 21.2121,-28.787877 9.2003,-11.50035 21.6744,-20.043698 33.3333,-28.787878 6.4307,-4.82304 32.9079,-20.122442 22.7273,-30.303031 -6.7556,-6.755586 -45.0706,17.00107 -54.5455,21.212121 -4.9707,2.209215 -10.3761,3.455861 -15.1515,6.060607 -15.7258,8.577692 -26.4912,23.078134 -37.8788,36.363636 -15.6536,18.262572 -31.3136,37.741462 -50,53.030302 -10.2923,8.42102 -21.695,15.80648 -31.8182,24.24243 -5.9217,4.93476 -10.3974,12.18861 -16.6666,16.66666 -8.9343,6.38162 -20.484,11.75712 -30.3031,16.66667 -1.4285,0.71425 -3.2165,0.62923 -4.5454,1.51515 -3.2401,2.16007 -8.6282,9.92352 -10.6061,12.12121 -12.217,13.57451 -26.0341,25.39575 -37.8788,39.39394 -0.9021,1.06616 -7.1026,11.48193 -10.606,10.60606 -1.3859,-0.34646 -2.0202,-2.0202 -3.0303,-3.0303"
       id="path865" />
    <path
       style="fill:none;stroke:#000000"
       d="M 1128.7879,171.21212 C 1064.6942,154.67181 1071.9808,158.73315 995.45455,124.24242 975.29969,115.15855 954.43779,96.243445 936.36364,83.333333 927.05111,76.681529 916.24298,71.220185 907.57576,63.636364 905.49784,61.818182 895.40043,51.136364 893.93939,50 888.58229,45.833361 880.33651,43.617576 874.24242,40.909091 863.38886,36.085283 853.52596,28.279413 842.42424,24.242424 834.55733,21.381728 825.50366,19.544617 818.18182,15.151515 815.40877,13.487687 813.13131,11.111111 810.60606,9.0909091 807.07071,6.5656566 803.75278,3.704274 800,1.5151515 789.96701,-4.3374257 777.93281,-5.6205513 768.18182,-12.121212 c -1.28086,-0.853903 -9.43679,-7.921633 -10.60606,-9.090909 -2.61246,-2.612457 -3.41782,-8.111296 -7.57576,-10.606061 -5.81293,-3.48776 -10.60606,-3.648494 -10.60606,-3.030303 0,1.515152 3.10806,-0.479133 4.54545,0 2.25035,0.750114 7.35251,4.818892 9.09091,6.060606 9.70329,6.930921 19.0123,14.369217 28.78788,21.2121214 9.71533,6.80072699 35.35098,43.9317196 39.39394,56.0606056 0.81437,2.443109 0.43597,5.237524 1.51515,7.575758 2.8651,6.20771 7.93924,13.750721 13.63637,18.181818 3.52923,2.744962 10.96847,4.822279 13.63636,9.090909 8.52401,13.63842 13.51378,29.022797 22.72727,42.424247 5.99009,8.71285 18.24574,12.18513 25.75758,19.69697 9.79913,9.79912 15.07324,22.67835 27.27273,30.30303 12.19852,7.62407 40.39076,4.38595 51.51515,-3.03031 7.39046,-4.92697 12.18048,-9.10079 21.21212,-10.60606 8.44815,-1.40802 33.15555,1.96094 40.90905,4.54546 4.9442,1.64807 8.954,5.70279 13.6364,7.57575 8.89,3.55601 13.9104,-4.84365 21.2121,-6.0606 13.5114,-2.25191 42.8907,-0.29963 54.5455,3.0303 z"
       id="path867" />
    <path
       style="fill:none;stroke:#000000"
       d="m 1531.8182,163.63636 c 13.6363,-4.54545 27.3002,-9.00933 40.9091,-13.63636 11.6441,-3.95901 23.4293,-7.55356 34.8485,-12.12121 70.2334,-28.09339 -35.6485,9.80315 37.8787,-16.66667 22.7888,-8.20395 49.515,-14.38008 71.2122,-24.242423 10.1038,-4.59263 6.4578,-5.315331 16.6666,-12.121212 13.641,-9.094005 34.6278,-11.134227 48.4849,-21.212121 1.6898,-1.228956 5.9918,-8.494127 7.5757,-10.606061 0.4286,-0.571399 2.2294,-1.515151 1.5152,-1.515151 -9.8857,0 -52.7317,34.417174 -59.0909,39.393939 -20.6714,16.177589 -42.8794,30.525849 -62.1212,48.484849 -8.7653,8.18092 -15.3008,17.70693 -25.7576,24.24242 -3.4529,2.15808 -6.7432,4.77298 -10.6061,6.06061 -5.2271,1.74238 -14.4031,-0.40722 -19.6969,0 -9.1199,0.70153 -18.2734,1.39406 -27.2728,3.0303 -15.7121,2.85675 -31.269,7.46594 -46.9697,10.60606"
       id="path869" />
    <path
       style="fill:none;stroke:#000000"
       d="M 675.75758,866.66667 C 656.12624,853.388 636.33279,846.3513 615.15152,837.87879 c -2.09711,-0.83885 -3.86939,-2.4825 -6.06061,-3.03031 -16.36718,-4.09179 -33.49928,-5.79076 -50,-9.0909 -5.3689,-1.07378 -11.07475,-3.74661 -16.66667,-4.54546 -4.41968,-0.63138 -9.22906,0.73455 -13.63636,0 -1.57538,-0.26256 -3.0303,-1.0101 -4.54546,-1.51515 -2.52525,-0.50505 -5.02038,-1.19573 -7.57575,-1.51515 -8.52084,-1.06511 -17.21822,-0.56634 -25.75758,-1.51515 -5.17769,-0.5753 -11.1818,-2.48182 -16.66667,-3.03031 -6.42525,-0.64252 -13.294,0.91471 -19.69697,0 -6.08403,-0.86914 -12.02107,-2.41422 -18.18181,-3.0303 -5.21224,-0.52122 -11.48287,1.03676 -16.66667,0 -5.13072,-1.02614 -9.71705,-0.7388 -15.15152,-1.51515 -1.11797,-0.15971 -1.91232,-1.35544 -3.0303,-1.51515 -3.49982,-0.49998 -7.13936,0.69334 -10.60606,0 -10.80391,-2.16078 -22.22336,-3.03031 -33.33333,-3.03031 -13.39545,0 -29.1823,2.207 -42.42424,0 -18.34811,-3.05801 -39.18247,-2.62761 -57.57576,0 -11.36387,1.62341 -23.41086,0.24431 -34.84849,1.51516 -7.10578,0.78953 -14.24027,3.38348 -21.21212,4.54545 -6.44428,1.07405 -13.19923,0.86538 -19.69697,1.51515 -9.18831,0.91883 -18.52447,4.95128 -27.27273,7.57576 -13.40683,4.02205 -27.06198,7.47039 -39.39393,13.63636 -5.67238,2.83619 -13.7891,2.57617 -19.696975,4.54546 -0.677596,0.22586 -1.010101,1.0101 -1.515151,1.51515 -3.030303,0.50505 -6.137009,0.67118 -9.090909,1.51515 -0.686768,0.19622 -1.010101,1.0101 -1.515152,1.51515 -1.010101,0.50505 -1.934694,1.24125 -3.030303,1.51515 -2.449854,0.61247 -5.084864,-0.41515 -7.575757,0 -6.847201,1.1412 -13.177213,5.40251 -19.69697,7.57576 -5.113927,1.70464 -10.254307,1.6311 -15.151515,3.0303 -12.420049,3.54859 -23.363557,12.43936 -34.848485,18.18182"
       id="path873" />
    <path
       style="fill:none;stroke:#000000"
       d="m 56.060606,1057.5758 c 8.080808,-9.091 15.474768,-18.8423 24.242424,-27.2728 15.523436,-14.9264 10.179096,-6.7407 21.21212,-13.6363 11.75048,-7.3441 22.64032,-18.13837 34.84849,-24.24246 5.70304,-2.85152 12.00617,-5.1055 18.18181,-7.57576 15.13489,-6.05395 -11.46331,4.21651 6.06061,-4.54545 8.49741,-4.24871 18.73478,-4.21208 27.27273,-9.09091 2.19253,-1.25287 3.86807,-3.29258 6.0606,-4.54545 4.13073,-2.36042 9.34615,-3.31968 13.63637,-4.54546 10.39073,-2.96878 21.25907,-8.60151 31.81818,-12.12121 8.33781,-2.77927 16.02552,-7.52472 24.24242,-10.60606 9.21225,-3.45459 9.84516,-2.64985 19.69697,-7.57576 10.43263,-5.21631 33.68573,-9.40533 45.45455,-12.12121 7.47602,-1.72523 15.31612,-6.09353 22.72727,-7.57576 7.32789,-1.46558 15.33763,-1.79869 22.72727,-3.0303 6.49643,-1.08274 13.08681,-3.81099 19.69697,-4.54546 2.50981,-0.27886 5.08487,0.41515 7.57576,0 8.43196,-1.40532 12.71599,-4.08526 19.69697,-7.57575 10.11838,-5.05919 24.04043,-7.36365 34.84849,-10.60606 11.38019,-3.41406 23.2485,-6.51314 34.84848,-9.09091 6.14674,-1.36594 12.38078,-0.70989 18.18182,-3.03031 8.73839,-3.49535 19.33753,-3.1954 28.78788,-4.54545 3.43764,-0.49109 7.20619,0.67997 10.60606,0 27.75588,-5.55118 56.47631,-1.51515 84.84848,-1.51515 1.96135,0 37.5515,1.3515 37.87879,1.51515 0.63885,0.31942 1.0101,1.0101 1.51515,1.51515 2.52526,0.50505 5.09958,0.80767 7.57576,1.51515 1.53566,0.43876 3.41613,0.38583 4.54545,1.51515 0.35713,0.35713 0.388,1.83848 0,1.51516 -3.2922,-2.74351 -6.0606,-6.06061 -9.0909,-9.09091"
       id="path875" />
    <path
       style="fill:none;stroke:#000000"
       d="m 936.36364,1039.3939 c 78.38396,2.3753 22.06915,2.7527 81.81816,-1.5151 15.151,-1.0822 30.3773,-0.5174 45.4546,-3.0303 11.7017,-1.9503 23.1692,-6.7551 34.8484,-9.0909 13.1451,-2.629 -5.8815,3.9807 10.6061,-1.5152 2.1428,-0.7142 3.8694,-2.4825 6.0606,-3.0303 4.6741,-1.1685 10.5736,0.011 15.1515,-1.5151 1.7276,-0.5759 2.9167,-2.216 4.5455,-3.0303 7.5763,-3.7882 16.4046,-6.1518 24.2424,-9.0909 6.5802,-2.4676 14.9441,-2.9266 21.2121,-6.0606 3.269,-1.63452 5.1087,-5.06509 9.0909,-6.06065 3.2147,-0.80367 7.6972,-0.84863 10.6061,-3.03031 0.9035,-0.67759 0.7166,-2.23175 1.5152,-3.0303 3.0875,-3.08758 20.172,-13.11632 24.2424,-15.15152 2.2951,-1.14757 4.2197,-4.21971 6.0606,-6.0606 4.0953,-4.0953 10.4771,-7.38228 13.6363,-12.12121 2.6077,-3.91147 5.8157,-8.84599 9.091,-12.12122 0.7985,-0.79855 2.2317,-0.71659 3.0303,-1.51515 2.6571,-2.65709 1.7092,-6.44887 3.0303,-9.09091 6.0188,-12.03777 9.4806,-12.55455 12.1212,-25.75757 0.4429,-2.2148 2.4825,-3.86939 3.0303,-6.06061 2.8035,-11.21426 -1.2901,-29.62772 -4.5455,-39.39394 -0.7985,-2.39566 -3.4161,-3.80195 -4.5454,-6.0606 -0.4518,-0.90347 0.3194,-2.07204 0,-3.03031 -2.0489,-6.14649 -9.6906,-23.32689 -13.6364,-27.27272 -0.7986,-0.79856 -2.2317,-0.7166 -3.0303,-1.51516 -2.4595,-2.45945 -4.2425,-10.30305 -7.5758,-13.63636 -3.2294,-3.22946 -7.9385,-10.02988 -12.1212,-12.12121 -1.8066,-0.90332 -6.2104,-1.66499 -7.5757,-3.0303 -0.3572,-0.35713 0.3571,-1.15803 0,-1.51516 -0.7591,-0.75909 -5.0673,-0.52184 -6.0606,-1.51515 -0.3572,-0.35712 0.3571,-1.15802 0,-1.51515 -1.5152,-1.51515 -7.5758,1.51515 -9.0909,0 -2.5253,-2.52525 5.5555,-1.51515 -3.0303,-1.51515 -5.037,0 -7.5975,-3.0303 -13.6364,-3.0303 -2.5253,0 -9.9539,0.84933 -7.5758,0 8.4282,-3.01005 17.1717,-5.05051 25.7576,-7.57576"
       id="path877" />
    <path
       style="fill:none;stroke:#000000"
       d="m 977.27273,1068.1818 c 37.08997,-10.9711 79.43527,-4.7612 115.15147,-16.6666 4.9995,-1.6665 11.5394,1.2818 16.6667,0 7.8437,-1.961 16.1548,-1.4128 24.2424,-3.0304 6.2761,-1.2552 13.5012,1.549 19.697,0 2.5426,-0.6356 5.0098,-2.5171 7.5758,-3.0303 4.8176,-0.9635 10.392,1.1899 15.1515,0 3.5358,-0.8839 7.0439,-3.833 10.606,-4.5454 2.4763,-0.4953 5.1801,0.7985 7.5758,0 17.6289,-5.8763 36.4605,-13.2588 53.0303,-22.7273 5.719,-3.268 7.8748,-7.8747 12.1212,-12.1212 2.2981,-2.2981 7.7479,-3.7741 10.6061,-6.0606 4.2627,-3.41016 27.9728,-31.70318 30.303,-36.36364 0.4517,-0.90346 -0.3194,-2.07203 0,-3.0303 0.7986,-2.39566 3.4161,-3.80195 4.5455,-6.06061 2.0542,-4.10853 2.8126,-9.30433 4.5454,-13.63636 0.6763,-1.69074 2.4545,-2.81792 3.0303,-4.54545 1.2897,-3.86916 0.6601,-6.33095 1.5152,-10.60606 0.5205,-2.60261 2.3341,-3.97207 3.0303,-6.06061 0.7985,-2.39567 -0.4953,-5.09954 0,-7.57576 1.3022,-6.51134 2.5384,-12.16086 4.5454,-18.18182 2.1384,-6.41504 -5.3352,-40.24817 -7.5757,-46.96969 -0.503,-1.50885 -2.5274,-3.03661 -3.0303,-4.54546 -2.3032,-6.90954 -3.3391,-13.34188 -7.5758,-19.69697 -6.1501,-9.22515 -15.1911,-15.1911 -22.7273,-22.72727 -3.9459,-3.94593 -15.02,-12.81304 -19.6969,-15.15152 -0.9035,-0.45173 -2.3161,0.71425 -3.0303,0 -3.1349,-3.1349 4.7905,0.12255 -1.5152,-3.0303 -2.0719,-1.03595 -13.1422,-5.65875 -15.1515,-6.0606 -1.9198,-0.38395 -34.8485,-2.78885 -34.8485,-1.51516 0,1.82099 2.0202,3.03031 3.0303,4.54546"
       id="path879" />
    <path
       style="fill:none;stroke:#000000"
       d="m 1087.8788,793.93939 c 8.0808,-8.58585 14.8552,-18.62332 24.2424,-25.75757 8.5864,-6.52568 53.6729,-1.22431 68.1818,-6.06061 10.5716,-3.52385 24.3038,-6.8642 33.3334,-13.63636 1.1428,-0.8571 1.7526,-2.39146 3.0303,-3.0303 3.9623,-1.98115 6.8827,-0.79634 10.606,-3.03031 4.8736,-2.92416 9.8322,-6.43123 15.1515,-9.09091 5.2973,-2.64862 11.0884,-4.20117 16.6667,-6.0606 10.9749,-3.65829 -2.3888,0.43682 4.5455,-3.03031 5.7575,-2.87874 12.2021,-5.18387 18.1818,-7.57575 10.0329,-4.01317 19.385,-10.45007 28.7879,-15.15152 1.2121,-0.60606 3.3333,0.60606 4.5454,0 7.0528,-3.52641 16.8109,-5.37511 24.2424,-9.09091 2.6659,-1.33294 4.9099,-4.72766 7.5758,-6.0606 1.9929,-0.99643 3.8675,-0.78411 6.0606,-1.51516 2.017,-0.67234 8.5494,-6.34177 10.6061,-7.57575 4.4783,-2.68702 27.2115,-15.02921 28.7878,-18.18182 0.8085,-1.61684 -0.8084,-1.41346 0,-3.0303 2.2263,-4.45257 8.3883,-7.68557 10.6061,-12.12122 0.2259,-0.45173 -1.158,0.35713 -1.5151,0 -0.3572,-0.35712 0.4084,-1.21809 0,-1.51515 -5.3256,-3.87314 -11.1111,-7.07071 -16.6667,-10.60606"
       id="path881" />
    <path
       style="fill:none;stroke:#000000"
       d="m 1087.8788,793.93939 c 12.6263,-9.09091 24.424,-19.46025 37.8788,-27.27272 0.6005,-0.34868 12.527,0 15.1515,0 6.9504,0 17.2504,-1.74802 24.2424,0 8.5312,2.1328 20.6871,2.70026 28.7879,0 1.9165,-0.63885 4.1441,0.63884 6.0606,0 13.9494,-4.64981 21.7411,-15.68053 31.8182,-25.75758 3.1349,-3.1349 -0.1226,4.79055 3.0303,-1.51515 0.2259,-0.45173 -0.3571,-1.15803 0,-1.51515 0.7142,-0.71425 2.316,0.71425 3.0303,0 0.3571,-0.35713 -0.3571,-1.15803 0,-1.51515 0.3571,-0.35713 1.0634,0.22586 1.5151,0 2.9394,-1.46969 6.2352,-6.23515 7.5758,-7.57576 1.3683,-1.36827 5.7705,-2.12767 7.5758,-3.0303 1.2776,-0.63885 1.7526,-2.39146 3.0303,-3.03031 4.4233,-2.21167 10.1431,-2.876 15.1515,-4.54545 2.19,-0.73 5.3341,0.44833 7.5757,0 5.2447,-1.04894 10.1242,-3.28861 15.1515,-4.54546 5.6734,-1.41834 7.0671,-5.55188 10.6061,-9.09091 0.7143,-0.71424 2.1268,0.45174 3.0303,0 3.7957,-1.89786 7.1199,-5.25163 10.6061,-7.57575 1.0537,-0.70247 3.3711,-0.92801 4.5454,-1.51515 5.6672,-2.8336 11.0225,-7.78397 16.6667,-10.60607 0.9035,-0.45173 2.1268,0.45174 3.0303,0 3.3495,-1.67477 7.1265,-2.80568 10.6061,-4.54545 1.2776,-0.63884 1.6751,-2.57857 3.0303,-3.0303 0.9582,-0.31942 2.1268,0.45173 3.0303,0 0.4517,-0.22587 -0.4518,-1.28929 0,-1.51515 0.9034,-0.45174 2.0202,0 3.0303,0 1.5151,-0.50505 3.1169,-0.80091 4.5454,-1.51516 2.5814,-1.29069 8.8563,-4.31077 10.6061,-6.0606 0.3571,-0.35713 -0.3571,-1.15803 0,-1.51515 0.7142,-0.71425 2.1898,0.5603 3.0303,0 2.2933,-1.52889 16.5207,-17.88996 18.1818,-21.21212 1.2352,-2.4703 4.7702,-3.25507 6.0606,-4.54546 6.6143,-6.61425 -7.8826,-7.18669 -21.2121,-9.09091"
       id="path883" />
    <path
       style="fill:none;stroke:#000000"
       d="m 110.60606,786.36364 c 1.0101,-12.62627 2.11152,-25.24556 3.0303,-37.87879 1.10147,-15.14515 1.76925,-30.32185 3.03031,-45.45455 0.76154,-9.13856 2.22912,-7.29787 1.51515,-15.15151 -0.32333,-3.55658 -1.24125,-7.04534 -1.51515,-10.60606 -0.63435,-8.24652 1.36925,-17.54208 0,-25.75758 -1.01036,-6.06211 -1.51515,-11.70002 -1.51515,-18.18182 0,-17.75417 -2.73862,-39.04552 1.51515,-56.0606 1.53299,-6.132 -0.89529,-13.42998 0,-19.69697 0.81135,-5.67945 1.91864,-11.10835 3.0303,-16.66667 1.66239,-8.31195 0,-18.90907 0,-27.27273 0,-18.68687 0,-37.37373 0,-56.0606 0,-5.99321 0.56007,-11.7262 3.0303,-16.66667 1.11721,-2.23441 -1.69861,-8.90745 0,-10.60606 0.50293,-0.50292 8.55083,-3.57038 10.60606,-1.51515 0.35713,0.35712 -0.35712,1.15803 0,1.51515 1.26263,1.26263 6.31313,-1.26263 7.57576,0 3.70129,3.70129 -3.87976,17.88366 -4.54545,21.21212 -0.60308,3.0154 -1.51516,14.12854 -1.51516,16.66667 0,16.95396 -0.25139,33.5915 3.03031,50 1.22958,6.14789 -0.59009,10.35095 1.51515,16.66666 2.16883,6.50648 0,43.93858 0,53.03031 0,43.66133 -1.51515,86.51328 -1.51515,130.30303 0,11.78863 0.5919,27.01217 -3.03031,37.87879 -0.75757,2.27272 1.51516,1.51515 0,4.54545 -0.22586,0.45173 -1.15802,-0.35712 -1.51515,0 -0.69204,0.69204 -0.41455,5.37456 -1.51515,7.57576 -0.45173,0.90346 0.71425,2.31605 0,3.0303 -0.35712,0.35713 -1.15803,-0.35712 -1.51515,0 -0.49253,0.49253 -0.64376,15.15152 1.51515,15.15152"
       id="path885" />
    <path
       style="fill:none;stroke:#000000"
       d="m 66.666667,777.27273 c 11.616161,4.0404 22.773787,9.78417 34.848483,12.12121 13.36538,2.58685 11.04468,-5.19671 18.18182,-7.57576 1.5957,-0.5319 12.64057,-0.51936 13.63636,-1.51515 0.35713,-0.35712 -0.35712,-1.15803 0,-1.51515 1.67747,-1.67746 44.0178,1.99407 50,0 5.16775,-1.72258 5.63984,-6.06061 10.60606,-6.06061"
       id="path887" />
    <path
       style="fill:none;stroke:#000000"
       d="m 643.93939,613.63636 c 12.62626,-3.53535 25.40011,-6.58068 37.87879,-10.60606 3.22437,-1.04012 6.06061,-3.0303 9.09091,-4.54545 1.0101,-0.50505 2.40387,-0.5755 3.0303,-1.51515 0.56031,-0.84046 0.90347,-3.48204 0,-3.03031 -1.62874,0.81437 -2.0202,3.03031 -3.0303,4.54546"
       id="path889" />
    <text
       xml:space="preserve"
       style="font-style:normal;font-weight:normal;font-size:40px;line-height:1.25;font-family:sans-serif;fill:#000000;fill-opacity:1;stroke:none"
       x="257.57578"
       y="666.66669"
       id="text1087"><tspan
         sodipodi:role="line"
         id="tspan1085"
         x="257.57578"
         y="666.66669"></tspan></text>
    <text
       xml:space="preserve"
       style="font-style:normal;font-weight:normal;font-size:40px;line-height:1.25;font-family:sans-serif;fill:#000000;fill-opacity:1;stroke:none"
       x="298.48486"
       y="651.51514"
       id="text1095"><tspan
         sodipodi:role="line"
         id="tspan1093"
         x="298.48486"
         y="651.51514">forest</tspan></text>
    <text
       xml:space="preserve"
       style="font-style:normal;font-weight:normal;font-size:40px;line-height:1.25;font-family:sans-serif;fill:#000000;fill-opacity:1;stroke:none"
       x="1487.8788"
       y="887.87878"
       id="text1099"><tspan
         sodipodi:role="line"
         id="tspan1097"
         x="1487.8788"
         y="887.87878">flower field</tspan></text>
    <path
       style="fill:none;stroke:#000000"
       d="m 143.93939,431.81818 c 2.35262,-6.0773 73.23115,3.23256 89.39394,0 11.08024,-2.21605 21.68298,-3.0303 33.33334,-3.0303"
       id="path1101" />
    <path
       style="fill:none;stroke:#000000"
       d="m 268.18182,480.30303 -1.51515,-51.51515"
       id="path1103" />
    <path
       style="fill:none;stroke:#000000"
       d="m 140.90909,484.84848 127.27273,-4.54545"
       id="path1105" />
    <path
       style="fill:none;stroke:#000000"
       d="m 140.90909,484.84848 98.48485,10.60607"
       id="path1107" />
    <path
       style="fill:none;stroke:#000000"
       d="m 227.27273,536.36364 12.12121,-40.90909"
       id="path1109" />
    <path
       style="fill:none;stroke:#000000"
       d="m 146.9697,525.75758 80.30303,10.60606"
       id="path1111" />
    <path
       style="fill:none;stroke:#000000"
       d="M 116.66667,533.33333 13.636364,546.9697"
       id="path1113" />
    <path
       style="fill:none;stroke:#000000"
       d="M 18.181818,581.81818 13.636364,546.9697"
       id="path1115" />
    <path
       style="fill:none;stroke:#000000"
       d="m 109.09091,575.75758 -90.909092,6.0606"
       id="path1117" />
    <path
       style="fill:none;stroke:#000000"
       d="M 140.90909,484.84848 10.606061,463.63636 12.121212,515.15152 116.66667,533.33333"
       id="path1119" />
  </g>
  <g
     inkscape:groupmode="layer"
     id="layer4"
     inkscape:label="Sign" />
  <g
     inkscape:groupmode="layer"
     id="layer3"
     inkscape:label="Character" />
</svg>
